<svg xmlns="http://www.w3.org/2000/svg" xmlns:xlink="http://www.w3.org/1999/xlink" id="Camada_3" data-name="Camada 3" viewBox="0 0 578.9 336.76"><defs><style>      .cls-1 {        fill: url(#Gradiente_sem_nome_40-3);      }      .cls-2 {        fill: url(#Gradiente_sem_nome_40-2);      }      .cls-3 {        fill: url(#Gradiente_sem_nome_40-4);      }      .cls-4 {        fill: url(#Gradiente_sem_nome_40);      }    </style><linearGradient id="Gradiente_sem_nome_40" data-name="Gradiente sem nome 40" x1="122.29" y1="188.49" x2="417.47" y2="188.49" gradientUnits="userSpaceOnUse"><stop offset="0" stop-color="#cf132b"></stop><stop offset=".5" stop-color="#9c0e20"></stop><stop offset="1" stop-color="#7b0b1a"></stop></linearGradient><linearGradient id="Gradiente_sem_nome_40-2" data-name="Gradiente sem nome 40" x1="178.93" y1="188.49" x2="360.84" y2="188.49" xlink:href="#Gradiente_sem_nome_40"></linearGradient><linearGradient id="Gradiente_sem_nome_40-3" data-name="Gradiente sem nome 40" x1="230.98" y1="188.49" x2="308.79" y2="188.49" xlink:href="#Gradiente_sem_nome_40"></linearGradient><linearGradient id="Gradiente_sem_nome_40-4" data-name="Gradiente sem nome 40" x1="265.07" y1="96.99" x2="456.61" y2="96.99" xlink:href="#Gradiente_sem_nome_40"></linearGradient></defs><g id="Mission"><path class="cls-4" d="M363.45,121.87c13.43,18.81,21.37,41.8,21.37,66.62,0,63.37-51.56,114.93-114.93,114.93s-114.93-51.56-114.93-114.93,51.56-114.93,114.93-114.93c24.82,0,47.81,7.94,66.62,21.37l23.33-23.33c-24.92-19.22-56.11-30.7-89.95-30.7-81.38,0-147.59,66.21-147.59,147.59s66.21,147.59,147.59,147.59,147.59-66.21,147.59-147.59c0-33.84-11.47-65.03-30.7-89.95l-23.33,23.33Z"></path><path class="cls-2" d="M346.23,139.08l-17.25,17.25c5.22,9.56,8.19,20.52,8.19,32.15,0,37.1-30.19,67.29-67.29,67.29s-67.29-30.19-67.29-67.29,30.19-67.29,67.29-67.29c11.64,0,22.6,2.97,32.16,8.2l17.25-17.25c-14.23-9.23-31.19-14.61-49.41-14.61-50.23,0-90.96,40.72-90.96,90.96s40.72,90.96,90.96,90.96,90.96-40.72,90.96-90.96c0-18.22-5.38-35.18-14.61-49.41Z"></path><circle class="cls-1" cx="269.88" cy="188.49" r="38.91"></circle><polygon class="cls-3" points="456.61 34.91 430.63 27.05 424.21 .68 376.54 45.81 381.71 67.05 265.07 183.68 274.69 193.3 392.83 75.16 408.94 80.03 456.61 34.91"></polygon></g></svg>