<svg xmlns="http://www.w3.org/2000/svg" xmlns:xlink="http://www.w3.org/1999/xlink" id="Camada_1" data-name="Camada 1" viewBox="0 0 578.9 336.76"><defs><style>      .cls-1 {        fill: url(#Gradiente_sem_nome_40-7);      }      .cls-2 {        fill: url(#Gradiente_sem_nome_40-6);      }      .cls-3 {        fill: url(#Gradiente_sem_nome_40-8);      }      .cls-4 {        fill: url(#Gradiente_sem_nome_40-9);      }      .cls-5 {        fill: url(#Gradiente_sem_nome_40-5);      }      .cls-6 {        fill: url(#Gradiente_sem_nome_40-3);      }      .cls-7 {        fill: url(#Gradiente_sem_nome_40-2);      }      .cls-8 {        fill: url(#Gradiente_sem_nome_40-4);      }      .cls-9 {        fill: url(#Gradiente_sem_nome_40);      }    </style><linearGradient id="Gradiente_sem_nome_40" data-name="Gradiente sem nome 40" x1="146.85" y1="267.26" x2="268.54" y2="267.26" gradientUnits="userSpaceOnUse"><stop offset="0" stop-color="#cf132b"></stop><stop offset=".5" stop-color="#9c0e20"></stop><stop offset="1" stop-color="#7b0b1a"></stop></linearGradient><linearGradient id="Gradiente_sem_nome_40-2" data-name="Gradiente sem nome 40" y1="148.97" x2="266.24" y2="148.97" xlink:href="#Gradiente_sem_nome_40"></linearGradient><linearGradient id="Gradiente_sem_nome_40-3" data-name="Gradiente sem nome 40" x1="245.29" y1="148.97" x2="328.43" y2="148.97" xlink:href="#Gradiente_sem_nome_40"></linearGradient><linearGradient id="Gradiente_sem_nome_40-4" data-name="Gradiente sem nome 40" x1="252.14" y1="267.76" x2="325.74" y2="267.76" xlink:href="#Gradiente_sem_nome_40"></linearGradient><linearGradient id="Gradiente_sem_nome_40-5" data-name="Gradiente sem nome 40" x1="311.65" y1="148.97" x2="431.03" y2="148.97" xlink:href="#Gradiente_sem_nome_40"></linearGradient><linearGradient id="Gradiente_sem_nome_40-6" data-name="Gradiente sem nome 40" x1="309.34" y1="267.76" x2="431.03" y2="267.76" xlink:href="#Gradiente_sem_nome_40"></linearGradient><linearGradient id="Gradiente_sem_nome_40-7" data-name="Gradiente sem nome 40" x1="279.08" y1="28.1" x2="298.8" y2="28.1" xlink:href="#Gradiente_sem_nome_40"></linearGradient><linearGradient id="Gradiente_sem_nome_40-8" data-name="Gradiente sem nome 40" x1="171.38" y1="55.83" x2="209.35" y2="55.83" xlink:href="#Gradiente_sem_nome_40"></linearGradient><linearGradient id="Gradiente_sem_nome_40-9" data-name="Gradiente sem nome 40" x1="368.53" y1="55.83" x2="406.5" y2="55.83" xlink:href="#Gradiente_sem_nome_40"></linearGradient></defs><g id="Values"><g><path class="cls-9" d="M231.73,198.25l36.81,138-121.69-138h84.89Z"></path><path class="cls-7" d="M232.44,178.54h-85.59l56.26-56.26c1.85-1.85,4.36-2.88,6.97-2.88h56.15l-33.8,59.14Z"></path><path class="cls-6" d="M328.43,178.54h-83.15l43.66-59.14,39.49,59.14Z"></path><path class="cls-8" d="M325.74,198.76l-36.8,138-36.8-138h73.6Z"></path><path class="cls-5" d="M345.44,178.54l-33.8-59.14h56.15c2.62,0,5.12,1.04,6.97,2.88l56.26,56.26h-85.59Z"></path><path class="cls-2" d="M346.15,198.76h84.89l-121.69,138,36.81-138Z"></path><path class="cls-1" d="M288.94,56.21c-5.44,0-9.86-4.41-9.86-9.86V9.86c0-5.44,4.41-9.86,9.86-9.86s9.86,4.41,9.86,9.86v36.49c0,5.44-4.41,9.86-9.86,9.86Z"></path><path class="cls-3" d="M190.95,76.56l-18.25-31.6c-2.72-4.71-1.11-10.74,3.61-13.47,4.71-2.72,10.74-1.11,13.47,3.61l18.25,31.6c2.72,4.71,1.11,10.74-3.61,13.47-4.69,2.71-10.73,1.13-13.47-3.61Z"></path><path class="cls-4" d="M373.46,80.17c-4.72-2.72-6.33-8.75-3.61-13.47l18.25-31.6c2.72-4.72,8.75-6.33,13.47-3.61,4.72,2.72,6.33,8.75,3.61,13.47l-18.25,31.6c-2.73,4.73-8.77,6.32-13.47,3.61Z"></path></g></g></svg>