<svg xmlns="http://www.w3.org/2000/svg" xmlns:xlink="http://www.w3.org/1999/xlink" id="Camada_2" data-name="Camada 2" viewBox="0 0 578.9 336.76"><defs><style>      .cls-1 {        fill: url(#Gradiente_sem_nome_40-6);      }      .cls-2 {        fill: url(#Gradiente_sem_nome_40-5);      }      .cls-3 {        fill: url(#Gradiente_sem_nome_40-3);      }      .cls-4 {        fill: url(#Gradiente_sem_nome_40-2);      }      .cls-5 {        fill: url(#Gradiente_sem_nome_40-4);      }      .cls-6 {        fill: url(#Gradiente_sem_nome_40);      }    </style><linearGradient id="Gradiente_sem_nome_40" data-name="Gradiente sem nome 40" x1="334.65" y1="214.33" x2="578.9" y2="214.33" gradientUnits="userSpaceOnUse"><stop offset="0" stop-color="#cf132b"></stop><stop offset=".5" stop-color="#9c0e20"></stop><stop offset="1" stop-color="#7b0b1a"></stop></linearGradient><linearGradient id="Gradiente_sem_nome_40-2" data-name="Gradiente sem nome 40" x1="0" x2="229.19" xlink:href="#Gradiente_sem_nome_40"></linearGradient><linearGradient id="Gradiente_sem_nome_40-3" data-name="Gradiente sem nome 40" x1="194.42" y1="214.33" x2="369.75" y2="214.33" xlink:href="#Gradiente_sem_nome_40"></linearGradient><linearGradient id="Gradiente_sem_nome_40-4" data-name="Gradiente sem nome 40" x1="69.03" y1="52.06" x2="156.1" y2="52.06" xlink:href="#Gradiente_sem_nome_40"></linearGradient><linearGradient id="Gradiente_sem_nome_40-5" data-name="Gradiente sem nome 40" x1="266.9" y1="30.49" x2="297.27" y2="30.49" xlink:href="#Gradiente_sem_nome_40"></linearGradient><linearGradient id="Gradiente_sem_nome_40-6" data-name="Gradiente sem nome 40" x1="407.76" y1="52.8" x2="493.82" y2="52.8" xlink:href="#Gradiente_sem_nome_40"></linearGradient></defs><g id="Vision"><path class="cls-6" d="M334.65,92.59c47.08,20.35,80.03,67.19,80.03,121.75s-32.96,101.39-80.03,121.75c166.29-18.63,244.25-121.75,244.25-121.75,0,0-77.96-103.12-244.25-121.75Z"></path><path class="cls-4" d="M149.49,214.33c0-54.42,32.8-101.17,79.7-121.6C66.07,111.83,0,214.33,0,214.33c0,0,66.07,102.51,229.19,121.6-46.9-20.43-79.7-67.17-79.7-121.6Z"></path><path class="cls-3" d="M282.08,126.67c-48.41,0-87.66,39.25-87.66,87.66s39.25,87.66,87.66,87.66,87.66-39.25,87.66-87.66-39.25-87.66-87.66-87.66ZM282.08,248.59c-18.92,0-34.25-15.34-34.25-34.25s15.34-34.25,34.25-34.25,34.25,15.34,34.25,34.25-15.34,34.25-34.25,34.25ZM328.86,174.44c-6.92,0-12.52-5.61-12.52-12.52s5.61-12.52,12.52-12.52,12.52,5.61,12.52,12.52-5.61,12.52-12.52,12.52Z"></path><path class="cls-5" d="M122.51,83.39c10.71-3.42,21.88-6.57,33.59-9.36l-53.28-53.28c-11.62,2.82-22.88,5.89-33.78,9.17l53.48,53.48Z"></path><path class="cls-2" d="M277.58.68c-3.6,0-7.13.06-10.68.1v59.46c4.51-.1,8.96-.26,13.56-.26,5.7,0,11.25.17,16.81.32V.94c-6.5-.15-13.05-.26-19.69-.26Z"></path><path class="cls-1" d="M460.02,22.07l-52.27,52.27c11.7,2.75,22.94,5.85,33.76,9.19l52.31-52.31c-10.94-3.26-22.22-6.32-33.8-9.15Z"></path></g></svg>